<svg xmlns="http://www.w3.org/2000/svg" xmlns:xlink="http://www.w3.org/1999/xlink" width="500" zoomAndPan="magnify" viewBox="0 0 375 374.999991" height="500" preserveAspectRatio="xMidYMid meet" version="1.0"><defs><clipPath id="7fd85966ea"><path d="M 51 54.027344 L 324 54.027344 L 324 321 L 51 321 Z M 51 54.027344 " clip-rule="nonzero"/></clipPath></defs><g clip-path="url(#7fd85966ea)"><path fill="#ffffff" d="M 157.488281 320.785156 C 160.691406 320.769531 163.726562 319.316406 165.738281 316.824219 L 228.453125 239.519531 C 231.054688 236.292969 234.898438 234.339844 239.011719 234.058594 C 254.6875 233.03125 261.011719 253.867188 247.40625 261.726562 L 246.726562 262.125 C 232.0625 270.453125 217.398438 278.785156 202.734375 287.117188 C 201.566406 287.777344 200.539062 288.660156 199.691406 289.703125 L 188.96875 303 C 183.316406 310.007812 188.3125 320.433594 197.3125 320.410156 C 212.820312 320.375 228.328125 320.34375 243.835938 320.308594 C 247.105469 320.308594 250.183594 318.800781 252.210938 316.238281 L 267.933594 296.320312 C 269.917969 293.808594 270.675781 290.53125 269.984375 287.402344 L 248.648438 190.171875 C 247.746094 186.125 248.621094 181.910156 250.957031 178.515625 C 259.925781 165.613281 280.160156 173.660156 277.820312 189.195312 L 277.703125 189.980469 C 275.074219 206.636719 272.445312 223.296875 269.816406 239.960938 C 269.609375 241.28125 269.644531 242.640625 269.9375 243.949219 L 273.648438 260.625 C 275.605469 269.410156 286.871094 272.003906 292.472656 264.960938 C 301.417969 253.683594 312.914062 239.210938 321.402344 228.519531 C 323.4375 225.964844 324.183594 222.621094 323.4375 219.441406 L 317.667969 194.734375 C 316.941406 191.613281 314.847656 188.984375 311.976562 187.574219 L 222.652344 143.632812 C 218.925781 141.8125 216.171875 138.503906 214.972656 134.5625 C 210.484375 119.507812 229.386719 108.703125 240.078125 120.21875 L 240.621094 120.800781 C 252.007812 133.238281 263.386719 145.691406 274.773438 158.128906 C 275.675781 159.121094 276.765625 159.929688 277.96875 160.515625 L 293.324219 168.015625 C 301.410156 171.96875 310.460938 164.769531 308.441406 156.003906 C 304.960938 140.894531 301.476562 125.78125 297.996094 110.671875 C 297.261719 107.488281 295.117188 104.816406 292.164062 103.410156 L 269.25 92.515625 C 266.355469 91.144531 262.996094 91.136719 260.09375 92.503906 L 170.050781 134.941406 C 166.304688 136.71875 162 136.808594 158.171875 135.289062 C 143.601562 129.417969 146.9375 107.894531 162.609375 106.71875 L 163.394531 106.660156 C 180.21875 105.511719 197.046875 104.375 213.871094 103.226562 C 215.207031 103.140625 216.523438 102.792969 217.734375 102.222656 L 233.171875 94.898438 C 241.304688 91.039062 241.324219 79.476562 233.199219 75.582031 C 219.210938 68.882812 205.226562 62.191406 191.246094 55.492188 C 188.296875 54.082031 184.867188 54.09375 181.9375 55.519531 L 159.132812 66.644531 C 156.253906 68.046875 154.152344 70.667969 153.417969 73.792969 L 130.453125 170.652344 C 129.511719 174.6875 126.890625 178.109375 123.3125 180.152344 C 109.640625 187.882812 94.894531 171.851562 103.742188 158.871094 L 104.183594 158.214844 C 113.777344 144.347656 123.378906 130.484375 132.972656 116.613281 C 133.738281 115.511719 134.289062 114.269531 134.589844 112.960938 L 138.484375 96.328125 C 140.53125 87.566406 131.511719 80.335938 123.40625 84.257812 C 110.449219 90.535156 93.816406 98.59375 81.535156 104.535156 C 78.59375 105.960938 76.464844 108.648438 75.757812 111.839844 L 70.242188 136.601562 C 69.542969 139.734375 70.285156 143.007812 72.261719 145.527344 L 133.671875 223.871094 C 136.234375 227.125 137.285156 231.304688 136.644531 235.375 C 134.164062 250.882812 112.441406 252.417969 107.804688 237.402344 L 107.570312 236.644531 C 102.714844 220.5 97.851562 204.34375 92.992188 188.195312 C 92.605469 186.910156 91.980469 185.714844 91.148438 184.65625 L 80.570312 171.234375 C 74.996094 164.167969 63.71875 166.714844 61.734375 175.503906 C 58.320312 190.628906 54.902344 205.753906 51.480469 220.882812 C 50.757812 224.070312 51.53125 227.40625 53.582031 229.953125 L 69.5 249.707031 C 71.511719 252.207031 74.53125 253.667969 77.742188 253.691406 L 177.285156 254.519531 C 181.429688 254.542969 185.351562 256.328125 188.136719 259.367188 C 198.714844 270.984375 186.367188 288.921875 171.738281 283.1875 L 171.003906 282.898438 C 155.351562 276.632812 139.695312 270.359375 124.039062 264.085938 C 122.789062 263.585938 121.46875 263.328125 120.125 263.320312 L 103.035156 263.226562 C 94.035156 263.175781 88.996094 273.585938 94.625 280.605469 C 104.320312 292.707031 114.011719 304.8125 123.710938 316.921875 C 125.75 319.46875 128.84375 320.945312 132.113281 320.933594 L 157.488281 320.808594 Z M 128.992188 203.585938 L 137.726562 161.707031 C 138.386719 158.515625 140.472656 155.804688 143.375 154.335938 L 181.570312 135.046875 C 184.480469 133.578125 187.894531 133.511719 190.847656 134.871094 L 229.738281 152.699219 C 232.699219 154.058594 234.882812 156.6875 235.660156 159.847656 L 245.96875 201.367188 C 246.753906 204.527344 246.054688 207.871094 244.074219 210.457031 L 218.03125 244.402344 C 216.046875 246.988281 212.996094 248.527344 209.742188 248.589844 L 166.964844 249.398438 C 163.710938 249.457031 160.601562 248.039062 158.523438 245.527344 L 131.222656 212.585938 C 129.144531 210.082031 128.324219 206.761719 128.992188 203.582031 Z M 128.992188 203.585938 " fill-opacity="1" fill-rule="nonzero"/></g></svg>