<svg xmlns="http://www.w3.org/2000/svg" xmlns:xlink="http://www.w3.org/1999/xlink" width="500" zoomAndPan="magnify" viewBox="0 0 375 374.999991" height="500" preserveAspectRatio="xMidYMid meet" version="1.0"><defs><g/><clipPath id="5e87d007cd"><path d="M 43.179688 143 L 134.679688 143 L 134.679688 232.179688 L 43.179688 232.179688 Z M 43.179688 143 " clip-rule="nonzero"/></clipPath></defs><g clip-path="url(#5e87d007cd)"><path fill="#ffffff" d="M 78.816406 232.003906 C 79.882812 232 80.898438 231.515625 81.570312 230.683594 L 102.515625 204.867188 C 103.382812 203.789062 104.664062 203.136719 106.039062 203.042969 C 111.273438 202.699219 113.386719 209.65625 108.84375 212.28125 L 108.617188 212.414062 C 103.71875 215.195312 98.820312 217.980469 93.925781 220.761719 C 93.535156 220.980469 93.191406 221.277344 92.910156 221.625 L 89.328125 226.066406 C 87.441406 228.40625 89.109375 231.886719 92.113281 231.878906 C 97.292969 231.867188 102.472656 231.859375 107.652344 231.84375 C 108.742188 231.84375 109.769531 231.34375 110.449219 230.484375 L 115.699219 223.835938 C 116.359375 222.996094 116.613281 221.902344 116.382812 220.855469 L 109.257812 188.386719 C 108.957031 187.035156 109.25 185.628906 110.027344 184.492188 C 113.023438 180.1875 119.78125 182.871094 119 188.0625 L 118.960938 188.324219 C 118.082031 193.886719 117.203125 199.449219 116.324219 205.011719 C 116.257812 205.457031 116.269531 205.910156 116.367188 206.34375 L 117.605469 211.914062 C 118.257812 214.847656 122.023438 215.714844 123.890625 213.363281 C 126.878906 209.597656 130.71875 204.761719 133.554688 201.195312 C 134.234375 200.339844 134.484375 199.222656 134.234375 198.160156 L 132.308594 189.910156 C 132.0625 188.867188 131.363281 187.988281 130.40625 187.519531 L 100.574219 172.84375 C 99.332031 172.238281 98.410156 171.132812 98.011719 169.816406 C 96.511719 164.789062 102.824219 161.179688 106.394531 165.027344 L 106.578125 165.222656 C 110.378906 169.375 114.179688 173.53125 117.980469 177.6875 C 118.285156 178.015625 118.648438 178.285156 119.050781 178.484375 L 124.175781 180.988281 C 126.878906 182.308594 129.898438 179.902344 129.226562 176.976562 C 128.0625 171.929688 126.898438 166.882812 125.738281 161.835938 C 125.492188 160.773438 124.773438 159.882812 123.789062 159.414062 L 116.136719 155.777344 C 115.171875 155.316406 114.050781 155.3125 113.082031 155.769531 L 83.011719 169.941406 C 81.757812 170.535156 80.320312 170.566406 79.042969 170.058594 C 74.179688 168.097656 75.292969 160.910156 80.523438 160.519531 L 80.789062 160.5 C 86.40625 160.117188 92.027344 159.734375 97.644531 159.351562 C 98.089844 159.324219 98.53125 159.207031 98.933594 159.015625 L 104.089844 156.570312 C 106.804688 155.28125 106.8125 151.421875 104.097656 150.121094 C 99.425781 147.882812 94.757812 145.648438 90.089844 143.410156 C 89.105469 142.941406 87.957031 142.945312 86.980469 143.421875 L 79.363281 147.136719 C 78.402344 147.601562 77.699219 148.480469 77.457031 149.523438 L 69.785156 181.867188 C 69.472656 183.214844 68.597656 184.359375 67.402344 185.042969 C 62.835938 187.621094 57.914062 182.269531 60.867188 177.933594 L 61.011719 177.714844 C 64.21875 173.082031 67.425781 168.453125 70.628906 163.824219 C 70.882812 163.453125 71.066406 163.039062 71.167969 162.601562 L 72.46875 157.046875 C 73.152344 154.121094 70.140625 151.707031 67.433594 153.019531 C 63.105469 155.113281 57.550781 157.804688 53.449219 159.789062 C 52.46875 160.265625 51.757812 161.164062 51.523438 162.226562 L 49.679688 170.496094 C 49.445312 171.542969 49.695312 172.636719 50.355469 173.480469 L 70.859375 199.640625 C 71.71875 200.726562 72.066406 202.125 71.855469 203.484375 C 71.027344 208.660156 63.769531 209.175781 62.222656 204.160156 L 62.144531 203.90625 C 60.523438 198.515625 58.898438 193.121094 57.277344 187.726562 C 57.148438 187.296875 56.9375 186.898438 56.660156 186.546875 L 53.128906 182.0625 C 51.265625 179.703125 47.5 180.554688 46.839844 183.488281 C 45.699219 188.539062 44.558594 193.589844 43.414062 198.640625 C 43.171875 199.707031 43.429688 200.820312 44.113281 201.671875 L 49.429688 208.269531 C 50.105469 209.101562 51.113281 209.589844 52.183594 209.597656 L 85.425781 209.875 C 86.808594 209.882812 88.121094 210.480469 89.050781 211.496094 C 92.582031 215.375 88.457031 221.363281 83.574219 219.449219 L 83.328125 219.351562 C 78.101562 217.261719 72.871094 215.164062 67.644531 213.070312 C 67.226562 212.902344 66.785156 212.816406 66.335938 212.816406 L 60.632812 212.78125 C 57.625 212.765625 55.941406 216.242188 57.820312 218.585938 C 61.058594 222.628906 64.296875 226.671875 67.535156 230.714844 C 68.214844 231.566406 69.25 232.058594 70.339844 232.054688 L 78.816406 232.011719 Z M 69.296875 192.867188 L 72.214844 178.878906 C 72.4375 177.816406 73.132812 176.910156 74.101562 176.421875 L 86.855469 169.976562 C 87.828125 169.488281 88.96875 169.464844 89.957031 169.917969 L 102.941406 175.871094 C 103.933594 176.328125 104.660156 177.207031 104.921875 178.261719 L 108.363281 192.125 C 108.625 193.179688 108.390625 194.296875 107.730469 195.160156 L 99.03125 206.496094 C 98.371094 207.363281 97.351562 207.875 96.265625 207.894531 L 81.980469 208.167969 C 80.894531 208.1875 79.855469 207.710938 79.160156 206.875 L 70.042969 195.871094 C 69.351562 195.035156 69.074219 193.925781 69.296875 192.863281 Z M 69.296875 192.867188 " fill-opacity="1" fill-rule="nonzero"/></g><g fill="#ffffff" fill-opacity="1"><g transform="translate(142.891313, 193.503107)"><g><path d="M 26.828125 -33.359375 L 26.828125 -26.640625 L 17.53125 -26.640625 L 17.53125 0 L 10.296875 0 L 10.296875 -26.640625 L 1.046875 -26.640625 L 1.046875 -33.359375 Z M 26.828125 -33.359375 "/></g></g></g><g fill="#ffffff" fill-opacity="1"><g transform="translate(168.341363, 193.503107)"><g><path d="M 28.3125 -12.96875 C 28.3125 -12.300781 28.265625 -11.613281 28.171875 -10.90625 L 8.71875 -10.90625 C 9.007812 -9.164062 9.707031 -7.828125 10.8125 -6.890625 C 11.925781 -5.953125 13.328125 -5.484375 15.015625 -5.484375 C 16.222656 -5.484375 17.300781 -5.742188 18.25 -6.265625 C 19.207031 -6.785156 19.9375 -7.507812 20.4375 -8.4375 L 27.78125 -8.4375 C 26.832031 -5.632812 25.210938 -3.40625 22.921875 -1.75 C 20.628906 -0.101562 17.992188 0.71875 15.015625 0.71875 C 12.472656 0.71875 10.191406 0.125 8.171875 -1.0625 C 6.148438 -2.257812 4.5625 -3.878906 3.40625 -5.921875 C 2.25 -7.972656 1.671875 -10.289062 1.671875 -12.875 C 1.671875 -15.445312 2.25 -17.753906 3.40625 -19.796875 C 4.5625 -21.847656 6.148438 -23.46875 8.171875 -24.65625 C 10.191406 -25.851562 12.472656 -26.453125 15.015625 -26.453125 C 17.648438 -26.453125 19.96875 -25.835938 21.96875 -24.609375 C 23.96875 -23.390625 25.523438 -21.765625 26.640625 -19.734375 C 27.753906 -17.703125 28.3125 -15.445312 28.3125 -12.96875 Z M 15.015625 -20.546875 C 13.453125 -20.546875 12.140625 -20.113281 11.078125 -19.25 C 10.015625 -18.394531 9.289062 -17.203125 8.90625 -15.671875 L 21.34375 -15.671875 C 20.332031 -18.921875 18.222656 -20.546875 15.015625 -20.546875 Z M 15.015625 -20.546875 "/></g></g></g><g fill="#ffffff" fill-opacity="1"><g transform="translate(195.888463, 193.503107)"><g><path d="M 24.359375 -25.78125 L 29.546875 -25.78125 L 29.546875 -0.046875 L 24.0625 -0.046875 L 23.5 -2.328125 C 22.382812 -1.378906 21.117188 -0.632812 19.703125 -0.09375 C 18.285156 0.445312 16.769531 0.71875 15.15625 0.71875 C 12.582031 0.71875 10.273438 0.125 8.234375 -1.0625 C 6.203125 -2.257812 4.597656 -3.878906 3.421875 -5.921875 C 2.253906 -7.972656 1.671875 -10.304688 1.671875 -12.921875 C 1.671875 -15.492188 2.253906 -17.800781 3.421875 -19.84375 C 4.597656 -21.894531 6.203125 -23.507812 8.234375 -24.6875 C 10.273438 -25.863281 12.582031 -26.453125 15.15625 -26.453125 C 16.8125 -26.453125 18.351562 -26.171875 19.78125 -25.609375 C 21.207031 -25.054688 22.476562 -24.285156 23.59375 -23.296875 Z M 15.734375 -5.859375 C 17.066406 -5.859375 18.265625 -6.160156 19.328125 -6.765625 C 20.390625 -7.367188 21.222656 -8.203125 21.828125 -9.265625 C 22.429688 -10.328125 22.734375 -11.546875 22.734375 -12.921875 C 22.734375 -14.253906 22.429688 -15.453125 21.828125 -16.515625 C 21.222656 -17.578125 20.390625 -18.414062 19.328125 -19.03125 C 18.265625 -19.65625 17.066406 -19.96875 15.734375 -19.96875 C 14.359375 -19.96875 13.144531 -19.65625 12.09375 -19.03125 C 11.050781 -18.414062 10.226562 -17.578125 9.625 -16.515625 C 9.019531 -15.453125 8.71875 -14.253906 8.71875 -12.921875 C 8.71875 -11.546875 9.019531 -10.332031 9.625 -9.28125 C 10.226562 -8.238281 11.050781 -7.40625 12.09375 -6.78125 C 13.144531 -6.164062 14.359375 -5.859375 15.734375 -5.859375 Z M 15.734375 -5.859375 "/></g></g></g><g fill="#ffffff" fill-opacity="1"><g transform="translate(226.390485, 193.503107)"><g><path d="M 32.59375 -26.359375 C 34.375 -26.359375 35.945312 -25.921875 37.3125 -25.046875 C 38.675781 -24.171875 39.75 -22.96875 40.53125 -21.4375 C 41.3125 -19.914062 41.703125 -18.15625 41.703125 -16.15625 L 41.703125 0 L 34.734375 0 L 34.734375 -15.015625 C 34.734375 -18.503906 33.429688 -20.25 30.828125 -20.25 C 29.304688 -20.25 28.109375 -19.691406 27.234375 -18.578125 C 26.359375 -17.472656 25.921875 -15.921875 25.921875 -13.921875 L 25.921875 0 L 19.109375 0 L 19.109375 -15.015625 C 19.109375 -18.503906 17.851562 -20.25 15.34375 -20.25 C 13.757812 -20.25 12.519531 -19.691406 11.625 -18.578125 C 10.738281 -17.472656 10.296875 -15.921875 10.296875 -13.921875 L 10.296875 0 L 3.34375 0 L 3.34375 -25.734375 L 8.203125 -25.734375 L 9.484375 -22.546875 C 10.398438 -23.679688 11.535156 -24.597656 12.890625 -25.296875 C 14.242188 -26.003906 15.679688 -26.359375 17.203125 -26.359375 C 18.828125 -26.359375 20.289062 -25.988281 21.59375 -25.25 C 22.894531 -24.519531 23.910156 -23.503906 24.640625 -22.203125 C 25.523438 -23.472656 26.664062 -24.484375 28.0625 -25.234375 C 29.46875 -25.984375 30.976562 -26.359375 32.59375 -26.359375 Z M 32.59375 -26.359375 "/></g></g></g><g fill="#ffffff" fill-opacity="1"><g transform="translate(268.712238, 193.503107)"><g><path d="M 23.59375 -33.359375 L 30.78125 -33.359375 L 30.78125 0 L 23.59375 0 L 23.59375 -13.765625 L 11.0625 -13.765625 L 11.0625 0 L 3.8125 0 L 3.8125 -33.359375 L 11.0625 -33.359375 L 11.0625 -20.5 L 23.59375 -20.5 Z M 23.59375 -33.359375 "/></g></g></g><g fill="#ffffff" fill-opacity="1"><g transform="translate(300.977697, 193.503107)"><g><path d="M 15.109375 0.71875 C 12.691406 0.71875 10.566406 0.234375 8.734375 -0.734375 C 6.910156 -1.703125 5.5 -3.050781 4.5 -4.78125 C 3.5 -6.519531 3 -8.546875 3 -10.859375 L 3 -25.734375 L 9.953125 -25.734375 L 9.953125 -11.671875 C 9.953125 -9.828125 10.40625 -8.390625 11.3125 -7.359375 C 12.21875 -6.328125 13.484375 -5.8125 15.109375 -5.8125 C 16.722656 -5.8125 17.972656 -6.332031 18.859375 -7.375 C 19.753906 -8.425781 20.203125 -9.859375 20.203125 -11.671875 L 20.203125 -25.734375 L 27.171875 -25.734375 L 27.171875 -10.859375 C 27.171875 -8.546875 26.664062 -6.519531 25.65625 -4.78125 C 24.65625 -3.050781 23.25 -1.703125 21.4375 -0.734375 C 19.632812 0.234375 17.523438 0.71875 15.109375 0.71875 Z M 15.109375 0.71875 "/></g></g></g><g fill="#ffffff" fill-opacity="1"><g transform="translate(328.763104, 193.503107)"><g><path d="M 17.34375 -26.453125 C 19.976562 -26.453125 22.3125 -25.863281 24.34375 -24.6875 C 26.382812 -23.507812 27.984375 -21.894531 29.140625 -19.84375 C 30.296875 -17.800781 30.875 -15.476562 30.875 -12.875 C 30.875 -10.257812 30.296875 -7.925781 29.140625 -5.875 C 27.984375 -3.832031 26.382812 -2.222656 24.34375 -1.046875 C 22.3125 0.128906 19.976562 0.71875 17.34375 0.71875 C 15.789062 0.71875 14.328125 0.472656 12.953125 -0.015625 C 11.585938 -0.515625 10.367188 -1.222656 9.296875 -2.140625 L 8.484375 0 L 3.34375 0 L 3.34375 -35.03125 L 10.296875 -35.03125 L 10.296875 -24.359375 C 11.273438 -25.023438 12.359375 -25.539062 13.546875 -25.90625 C 14.742188 -26.269531 16.007812 -26.453125 17.34375 -26.453125 Z M 16.78125 -5.859375 C 18.144531 -5.859375 19.347656 -6.160156 20.390625 -6.765625 C 21.441406 -7.367188 22.269531 -8.203125 22.875 -9.265625 C 23.476562 -10.328125 23.78125 -11.53125 23.78125 -12.875 C 23.78125 -14.207031 23.476562 -15.40625 22.875 -16.46875 C 22.269531 -17.53125 21.441406 -18.367188 20.390625 -18.984375 C 19.347656 -19.609375 18.144531 -19.921875 16.78125 -19.921875 C 15.445312 -19.921875 14.242188 -19.609375 13.171875 -18.984375 C 12.109375 -18.367188 11.273438 -17.53125 10.671875 -16.46875 C 10.066406 -15.40625 9.765625 -14.207031 9.765625 -12.875 C 9.765625 -11.53125 10.066406 -10.332031 10.671875 -9.28125 C 11.273438 -8.238281 12.109375 -7.40625 13.171875 -6.78125 C 14.242188 -6.164062 15.445312 -5.859375 16.78125 -5.859375 Z M 16.78125 -5.859375 "/></g></g></g><g fill="#ffffff" fill-opacity="1"><g transform="translate(142.891313, 219.792101)"><g><path d="M 6.296875 -6.3125 L 2.234375 -6.3125 L 2.234375 -4.296875 L 5.859375 -4.296875 L 5.859375 -3.171875 L 2.234375 -3.171875 L 2.234375 -1.125 L 6.421875 -1.125 L 6.421875 0 L 0.984375 0 L 0.984375 -7.4375 L 6.296875 -7.4375 Z M 6.296875 -6.3125 "/></g></g></g><g fill="#ffffff" fill-opacity="1"><g transform="translate(151.980638, 219.792101)"><g><path d="M 8.84375 0 L 7.6875 0 L 7.671875 -5.5625 L 5.328125 -0.78125 L 4.5 -0.78125 L 2.15625 -5.5625 L 2.15625 0 L 0.984375 0 L 0.984375 -7.4375 L 2.46875 -7.4375 L 4.921875 -2.5 L 7.359375 -7.4375 L 8.84375 -7.4375 Z M 8.84375 0 "/></g></g></g><g fill="#ffffff" fill-opacity="1"><g transform="translate(163.926007, 219.792101)"><g><path d="M 0.984375 -7.4375 L 3.9375 -7.4375 C 4.875 -7.4375 5.597656 -7.210938 6.109375 -6.765625 C 6.628906 -6.328125 6.890625 -5.703125 6.890625 -4.890625 C 6.890625 -4.054688 6.628906 -3.40625 6.109375 -2.9375 C 5.597656 -2.46875 4.875 -2.234375 3.9375 -2.234375 L 2.234375 -2.234375 L 2.234375 0 L 0.984375 0 Z M 2.234375 -6.3125 L 2.234375 -3.375 L 3.890625 -3.375 C 5.085938 -3.375 5.6875 -3.867188 5.6875 -4.859375 C 5.6875 -5.828125 5.085938 -6.3125 3.890625 -6.3125 Z M 2.234375 -6.3125 "/></g></g></g><g fill="#ffffff" fill-opacity="1"><g transform="translate(173.195827, 219.792101)"><g><path d="M 1.5 -6.390625 C 2.257812 -7.109375 3.191406 -7.46875 4.296875 -7.46875 C 5.410156 -7.46875 6.347656 -7.109375 7.109375 -6.390625 C 7.867188 -5.671875 8.25 -4.78125 8.25 -3.71875 C 8.25 -2.65625 7.867188 -1.757812 7.109375 -1.03125 C 6.347656 -0.3125 5.410156 0.046875 4.296875 0.046875 C 3.191406 0.046875 2.257812 -0.3125 1.5 -1.03125 C 0.738281 -1.757812 0.359375 -2.65625 0.359375 -3.71875 C 0.359375 -4.78125 0.738281 -5.671875 1.5 -6.390625 Z M 4.3125 -6.34375 C 3.570312 -6.34375 2.941406 -6.085938 2.421875 -5.578125 C 1.898438 -5.078125 1.640625 -4.457031 1.640625 -3.71875 C 1.640625 -2.976562 1.898438 -2.351562 2.421875 -1.84375 C 2.953125 -1.332031 3.582031 -1.078125 4.3125 -1.078125 C 5.039062 -1.078125 5.660156 -1.332031 6.171875 -1.84375 C 6.691406 -2.351562 6.953125 -2.976562 6.953125 -3.71875 C 6.953125 -4.457031 6.691406 -5.078125 6.171875 -5.578125 C 5.660156 -6.085938 5.039062 -6.34375 4.3125 -6.34375 Z M 4.3125 -6.34375 "/></g></g></g><g fill="#ffffff" fill-opacity="1"><g transform="translate(183.920216, 219.792101)"><g><path d="M 8.625 0 L 7.34375 0 L 5.578125 -5.796875 L 3.796875 0 L 2.5 0 L 0.03125 -7.4375 L 1.375 -7.4375 L 3.1875 -1.390625 L 4.984375 -7.421875 L 6.21875 -7.4375 L 8.015625 -1.390625 L 9.8125 -7.4375 L 11.109375 -7.4375 Z M 8.625 0 "/></g></g></g><g fill="#ffffff" fill-opacity="1"><g transform="translate(197.044099, 219.792101)"><g><path d="M 6.296875 -6.3125 L 2.234375 -6.3125 L 2.234375 -4.296875 L 5.859375 -4.296875 L 5.859375 -3.171875 L 2.234375 -3.171875 L 2.234375 -1.125 L 6.421875 -1.125 L 6.421875 0 L 0.984375 0 L 0.984375 -7.4375 L 6.296875 -7.4375 Z M 6.296875 -6.3125 "/></g></g></g><g fill="#ffffff" fill-opacity="1"><g transform="translate(206.133425, 219.792101)"><g><path d="M 5.6875 0 L 4.328125 -2.25 C 4.265625 -2.238281 4.15625 -2.234375 4 -2.234375 L 2.234375 -2.234375 L 2.234375 0 L 0.984375 0 L 0.984375 -7.4375 L 4 -7.4375 C 4.945312 -7.4375 5.679688 -7.210938 6.203125 -6.765625 C 6.722656 -6.328125 6.984375 -5.703125 6.984375 -4.890625 C 6.984375 -4.296875 6.847656 -3.789062 6.578125 -3.375 C 6.316406 -2.96875 5.941406 -2.671875 5.453125 -2.484375 L 7.125 0 Z M 2.234375 -3.375 L 4 -3.375 C 5.195312 -3.375 5.796875 -3.867188 5.796875 -4.859375 C 5.796875 -5.828125 5.195312 -6.3125 4 -6.3125 L 2.234375 -6.3125 Z M 2.234375 -3.375 "/></g></g></g><g fill="#ffffff" fill-opacity="1"><g transform="translate(215.934105, 219.792101)"><g/></g></g><g fill="#ffffff" fill-opacity="1"><g transform="translate(220.797769, 219.792101)"><g><path d="M 6.0625 -6.3125 L 3.703125 -6.3125 L 3.703125 0 L 2.4375 0 L 2.4375 -6.3125 L 0.09375 -6.3125 L 0.09375 -7.4375 L 6.0625 -7.4375 Z M 6.0625 -6.3125 "/></g></g></g><g fill="#ffffff" fill-opacity="1"><g transform="translate(229.069564, 219.792101)"><g><path d="M 6.296875 -6.3125 L 2.234375 -6.3125 L 2.234375 -4.296875 L 5.859375 -4.296875 L 5.859375 -3.171875 L 2.234375 -3.171875 L 2.234375 -1.125 L 6.421875 -1.125 L 6.421875 0 L 0.984375 0 L 0.984375 -7.4375 L 6.296875 -7.4375 Z M 6.296875 -6.3125 "/></g></g></g><g fill="#ffffff" fill-opacity="1"><g transform="translate(238.15889, 219.792101)"><g><path d="M 5.78125 -1.671875 L 2.03125 -1.671875 L 1.3125 0 L 0.015625 0 L 3.296875 -7.4375 L 4.578125 -7.4375 L 7.828125 0 L 6.484375 0 Z M 5.296875 -2.796875 L 3.90625 -6.09375 L 2.5 -2.796875 Z M 5.296875 -2.796875 "/></g></g></g><g fill="#ffffff" fill-opacity="1"><g transform="translate(248.118837, 219.792101)"><g><path d="M 8.84375 0 L 7.6875 0 L 7.671875 -5.5625 L 5.328125 -0.78125 L 4.5 -0.78125 L 2.15625 -5.5625 L 2.15625 0 L 0.984375 0 L 0.984375 -7.4375 L 2.46875 -7.4375 L 4.921875 -2.5 L 7.359375 -7.4375 L 8.84375 -7.4375 Z M 8.84375 0 "/></g></g></g><g fill="#ffffff" fill-opacity="1"><g transform="translate(260.064202, 219.792101)"><g><path d="M 3.421875 -7.484375 C 4.378906 -7.484375 5.25 -7.226562 6.03125 -6.71875 L 5.5 -5.625 C 4.738281 -6.082031 4.015625 -6.3125 3.328125 -6.3125 C 2.953125 -6.3125 2.65625 -6.242188 2.4375 -6.109375 C 2.21875 -5.972656 2.109375 -5.78125 2.109375 -5.53125 C 2.109375 -5.28125 2.207031 -5.066406 2.40625 -4.890625 C 2.601562 -4.722656 2.851562 -4.597656 3.15625 -4.515625 C 3.457031 -4.441406 3.78125 -4.34375 4.125 -4.21875 C 4.46875 -4.09375 4.785156 -3.957031 5.078125 -3.8125 C 5.378906 -3.675781 5.628906 -3.460938 5.828125 -3.171875 C 6.023438 -2.878906 6.125 -2.523438 6.125 -2.109375 C 6.125 -1.453125 5.863281 -0.925781 5.34375 -0.53125 C 4.820312 -0.144531 4.144531 0.046875 3.3125 0.046875 C 2.75 0.046875 2.203125 -0.0546875 1.671875 -0.265625 C 1.140625 -0.484375 0.675781 -0.773438 0.28125 -1.140625 L 0.8125 -2.21875 C 1.1875 -1.875 1.597656 -1.609375 2.046875 -1.421875 C 2.503906 -1.234375 2.9375 -1.140625 3.34375 -1.140625 C 3.78125 -1.140625 4.117188 -1.21875 4.359375 -1.375 C 4.609375 -1.53125 4.734375 -1.753906 4.734375 -2.046875 C 4.734375 -2.296875 4.632812 -2.503906 4.4375 -2.671875 C 4.238281 -2.847656 3.988281 -2.976562 3.6875 -3.0625 C 3.382812 -3.144531 3.0625 -3.242188 2.71875 -3.359375 C 2.375 -3.472656 2.050781 -3.597656 1.75 -3.734375 C 1.457031 -3.867188 1.210938 -4.078125 1.015625 -4.359375 C 0.816406 -4.648438 0.71875 -5.003906 0.71875 -5.421875 C 0.71875 -6.046875 0.960938 -6.546875 1.453125 -6.921875 C 1.953125 -7.296875 2.609375 -7.484375 3.421875 -7.484375 Z M 3.421875 -7.484375 "/></g></g></g></svg>